name C:\Users\r0593348\3dpredictsim\Results\Batchsim_tmt_linear_v2\Pog_s1_tmt_bCst_d00_k250_ig24.mot
datacolumns 128
datarows 4
range 0.00000000 0.03270762
endheader
time	pelvis_tilt	pelvis_list	pelvis_rotation	pelvis_tx	pelvis_ty	pelvis_tz	hip_flexion_l	hip_adduction_l	hip_rotation_l	hip_flexion_r	hip_adduction_r	hip_rotation_r	knee_angle_l	knee_angle_r	ankle_angle_l	ankle_angle_r	subtalar_angle_l	subtalar_angle_r	tmt_angle_l	tmt_angle_r	mtp_angle_l	mtp_angle_r	lumbar_extension	lumbar_bending	lumbar_rotation	arm_flex_l	arm_add_l	arm_rot_l	arm_flex_r	arm_add_r	arm_rot_r	elbow_flex_l	elbow_flex_r	pro_sup_l	pro_sup_r	glut_med1_l/activation	glut_med2_l/activation	glut_med3_l/activation	glut_min1_l/activation	glut_min2_l/activation	glut_min3_l/activation	semimem_l/activation	semiten_l/activation	bifemlh_l/activation	bifemsh_l/activation	sar_l/activation	add_long_l/activation	add_brev_l/activation	add_mag1_l/activation	add_mag2_l/activation	add_mag3_l/activation	tfl_l/activation	pect_l/activation	grac_l/activation	glut_max1_l/activation	glut_max2_l/activation	glut_max3_l/activation	iliacus_l/activation	psoas_l/activation	quad_fem_l/activation	gem_l/activation	peri_l/activation	rect_fem_l/activation	vas_med_l/activation	vas_int_l/activation	vas_lat_l/activation	med_gas_l/activation	lat_gas_l/activation	soleus_l/activation	tib_post_l/activation	flex_dig_l/activation	flex_hal_l/activation	tib_ant_l/activation	per_brev_l/activation	per_long_l/activation	per_tert_l/activation	ext_dig_l/activation	ext_hal_l/activation	ercspn_l/activation	intobl_l/activation	extobl_l/activation	glut_med1_r/activation	glut_med2_r/activation	glut_med3_r/activation	glut_min1_r/activation	glut_min2_r/activation	glut_min3_r/activation	semimem_r/activation	semiten_r/activation	bifemlh_r/activation	bifemsh_r/activation	sar_r/activation	add_long_r/activation	add_brev_r/activation	add_mag1_r/activation	add_mag2_r/activation	add_mag3_r/activation	tfl_r/activation	pect_r/activation	grac_r/activation	glut_max1_r/activation	glut_max2_r/activation	glut_max3_r/activation	iliacus_r/activation	psoas_r/activation	quad_fem_r/activation	gem_r/activation	peri_r/activation	rect_fem_r/activation	vas_med_r/activation	vas_int_r/activation	vas_lat_r/activation	med_gas_r/activation	lat_gas_r/activation	soleus_r/activation	tib_post_r/activation	flex_dig_r/activation	flex_hal_r/activation	tib_ant_r/activation	per_brev_r/activation	per_long_r/activation	per_tert_r/activation	ext_dig_r/activation	ext_hal_r/activation	ercspn_r/activation	intobl_r/activation	extobl_r/activation	
          0.00000000	         -2.90701847	          1.21345354	          5.08492059	          0.00000000	          0.87127130	         -0.00380878	        -16.79654653	          1.82463992	          7.66947781	         27.25924422	         -0.58853534	         -1.58150655	         -8.51538934	         -8.10294971	         -9.95658414	          7.15299593	         10.47555056	          4.56057300	          3.97093664	          0.14677067	         25.85514052	         -0.07668592	          0.30808785	         -2.86424567	         -1.44153991	          2.77634397	        -13.50081557	         10.95290357	        -10.34352329	        -13.45259260	         10.18778018	         30.66401614	         18.98386777	         86.51662706	         86.51662706	          0.28314740	          0.08846409	          0.05000031	          0.23098889	          0.15917673	          0.08369473	          0.05000053	          0.05000007	          0.05000005	          0.05000010	          0.06982192	          0.12609319	          0.05000026	          0.05000024	          0.05000060	          0.05000022	          0.22027035	          0.05909305	          0.05000027	          0.05000031	          0.05000021	          0.05000020	          0.28627673	          0.50978467	          0.05000002	          0.05000010	          0.05000006	          0.20915963	          0.10256972	          0.11665205	          0.06830276	          0.15880491	          0.23146927	          0.18619536	          0.18167621	          0.20280103	          0.23653860	          0.05000000	          0.11739579	          0.14230005	          0.05000010	          0.05000002	          0.05000003	          0.05000001	          0.05000000	          0.06671222	          0.05908572	          0.05908336	          0.05908565	          0.05000019	          0.05000034	          0.05908529	          0.06499345	          0.05909070	          0.08650253	          0.05908554	          0.05000038	          0.05241847	          0.09765615	          0.13568133	          0.16588367	          0.12631659	          0.05000140	          0.05000138	          0.10475968	          0.06982109	          0.08354097	          0.12636717	          0.05000003	          0.05000003	          0.14997274	          0.05001983	          0.05000090	          0.05000002	          0.05000047	          0.05000089	          0.05000035	          0.05908547	          0.05908550	          0.05908545	          0.07572453	          0.06498080	          0.05922699	          0.43062796	          0.27870054	          0.18098315	          0.14619378	          0.49512233	          0.21105842	          0.05000008	          0.12268302	          0.10813673	
          0.01090254	         -2.88302842	          1.22269190	          5.19117122	          0.01735333	          0.87016565	         -0.00364715	        -16.38257401	          1.70123559	          7.37882184	         26.67298075	         -0.27834227	         -1.37762190	        -11.03575902	         -8.41426779	        -10.58698268	          6.37959959	         11.66033552	          4.15038448	          3.44033394	          0.07273566	         26.49072966	         -0.06357442	          0.54932606	         -2.62626003	         -1.50022497	          2.44205492	        -13.54646159	         11.28376456	        -11.52866930	        -13.45126536	          9.89761759	         31.50819525	         19.05524028	         86.51662706	         86.51662706	          0.23960841	          0.07486116	          0.05908537	          0.19547023	          0.13470047	          0.07082519	          0.05000080	          0.05000005	          0.05000008	          0.05000002	          0.05908559	          0.17192830	          0.32193582	          0.24272649	          0.06982399	          0.15153644	          0.18639985	          0.05000670	          0.05000018	          0.05001151	          0.05008116	          0.06982120	          0.24225654	          0.43139614	          0.05000293	          0.05908602	          0.05908543	          0.17699758	          0.11521846	          0.11521854	          0.08085146	          0.13438580	          0.19587671	          0.15756448	          0.15374024	          0.17161682	          0.20016658	          0.05000018	          0.09934409	          0.12041887	          0.05000003	          0.12197624	          0.06119558	          0.05738206	          0.09798654	          0.08250926	          0.05000025	          0.05000006	          0.05000022	          0.05000008	          0.05000008	          0.05000010	          0.05499955	          0.05000446	          0.07320122	          0.05000011	          0.05000045	          0.09750185	          0.17396224	          0.29863604	          0.24872317	          0.11173875	          0.05000009	          0.08251028	          0.08865118	          0.05908494	          0.07069510	          0.15649704	          0.05001013	          0.06982169	          0.50775422	          0.13472291	          0.11592940	          0.08543141	          0.31246420	          0.32658396	          0.25672755	          0.05000002	          0.05000005	          0.05000000	          0.06808928	          0.06219160	          0.05011995	          0.52640963	          0.23584539	          0.18279375	          0.35947581	          0.56092818	          0.31546476	          0.05000000	          0.10381830	          0.09150877	
          0.02180508	         -2.85318259	          1.20404437	          5.27287623	          0.03486359	          0.86873532	         -0.00350571	        -15.87118301	          1.57277162	          7.06274773	         25.92664376	         -0.04336166	         -1.12916491	        -13.74563135	         -8.97085292	        -11.01025091	          5.61987691	         12.75652479	          3.70988816	          2.73163678	         -0.09046106	         26.52422673	         -0.14019845	          0.79660693	         -2.35060348	         -1.54633585	          2.05895310	        -13.59521824	         11.55819458	        -12.68782845	        -13.47208316	          9.72373685	         32.35478706	         19.07110544	         86.51662706	         86.51662706	          0.24735964	          0.06334992	          0.05000003	          0.16541322	          0.11398789	          0.05993457	          0.05000097	          0.05000054	          0.05000178	          0.05000002	          0.05000022	          0.16141554	          0.39274461	          0.20540307	          0.05910295	          0.12823510	          0.15773757	          0.10739311	          0.05000134	          0.05000139	          0.05000959	          0.05908553	          0.20500526	          0.39121531	          0.05000081	          0.05000061	          0.05000003	          0.14978102	          0.09750156	          0.09750163	          0.06841910	          0.11372157	          0.16575715	          0.13333611	          0.13009993	          0.14522770	          0.16938739	          0.06723941	          0.10944843	          0.10190240	          0.15291176	          0.23157872	          0.17343991	          0.06268935	          0.08291935	          0.06982198	          0.31186002	          0.27071948	          0.19864682	          0.08255992	          0.05000061	          0.34473938	          0.08400530	          0.10299492	          0.09294322	          0.05000002	          0.05000016	          0.08250921	          0.14721245	          0.25271541	          0.21047763	          0.13607708	          0.05000030	          0.06982321	          0.07501983	          0.05000009	          0.05982450	          0.13243287	          0.05698194	          0.05908539	          0.42967789	          0.11400687	          0.16479315	          0.07229480	          0.26441723	          0.27636582	          0.21725109	          0.05668276	          0.05908481	          0.05908541	          0.05908526	          0.05908545	          0.05908545	          0.44546470	          0.30220545	          0.15468599	          0.30419999	          0.63930938	          0.47513471	          0.05000000	          0.08785440	          0.07743765	
          0.03270762	         -2.82035625	          1.16727667	          5.33249871	          0.05230860	          0.86699738	         -0.00335705	        -15.26035090	          1.44093934	          6.73484427	         25.03651810	          0.15224700	         -0.86149560	        -16.61243366	         -9.42694508	        -11.15324517	          4.90776330	         13.74545311	          3.23908571	          1.93021208	         -0.01666399	         25.63313673	         -0.18229673	          1.02916383	         -2.05433821	         -1.58212037	          1.66787100	        -13.65170860	         11.79402912	        -13.77535325	        -13.50907846	          9.68393962	         33.18410848	         19.00438477	         86.51662706	         86.51662706	          0.20932368	          0.05360882	          0.05000007	          0.18831730	          0.09646032	          0.05908560	          0.06919354	          0.05000027	          0.05000021	          0.05908537	          0.06982190	          0.13659507	          0.33235309	          0.17381870	          0.05001493	          0.10851669	          0.13348267	          0.09087968	          0.05591657	          0.05000046	          0.05000020	          0.05000021	          0.17348204	          0.33847471	          0.05000003	          0.05000038	          0.05866401	          0.12674950	          0.08250895	          0.08250901	          0.05789844	          0.09623484	          0.14026902	          0.11283328	          0.11009474	          0.12289639	          0.14334107	          0.07107279	          0.09261880	          0.08623309	          0.28777791	          0.29422782	          0.27964813	          0.09701501	          0.07016901	          0.05908560	          0.37233808	          0.39426521	          0.39139512	          0.19936540	          0.27761508	          0.31812252	          0.07108799	          0.08715773	          0.07865155	          0.08250885	          0.05000096	          0.06982195	          0.12457590	          0.21385591	          0.17811309	          0.15321742	          0.05000014	          0.05908673	          0.06982510	          0.23651455	          0.17364417	          0.15098334	          0.05000004	          0.05000005	          0.36360721	          0.09647640	          0.21231850	          0.06117818	          0.22375836	          0.23386965	          0.18384485	          0.05000000	          0.05000001	          0.05000000	          0.05000000	          0.05000005	          0.05000004	          0.62575092	          0.31765005	          0.16267522	          0.59706652	          0.66115674	          0.40207426	          0.06682726	          0.07434523	          0.06553023	
